# xmcd CD database file
#
# Track frame offsets:
#	183
#	14453
#	28953
#	44480
#	57913
#	82018
#	93165
#	114850
#	129883
#	145498
#	160290
#	171990
#	184323
#	201645
#
# Disc length: 3046 seconds
#
# Revision: 0
# Processed by: cddbd v1.5.2PL0 Copyright (c) Steve Scherf et al.
# Submitted via: CDex 1.51
#
DISCID=c90be40e
DTITLE=Sampler - Born With The Blues Vol. 1
DYEAR=2006
DGENRE=Blues
TTITLE0=Stomp Boogie - John Lee Hooker
TTITLE1=I Wish You Would - Billy Boy Arnold with Tony McPhee
TTITLE2=Road Runner (Live) - Bo Diddley
TTITLE3=Hard Walking Hanna - Jimmy Reed
TTITLE4=When My First The Blues - Jimmy Johnson
TTITLE5=Lonesome - Memphis Slim
TTITLE6=Born With The Blues - Buster Benton and Carey Bell
TTITLE7=Alabama Train - Louisiana Red
TTITLE8=I Had It So Hard - Sunnyland Slim
TTITLE9=Don`t Stay Out All Night - Billy Boy Arnold with Tony McPhee
TTITLE10=Let The Good Times Roll Creole - Memphis Slim
TTITLE11=House Rent Boogie - John Lee Hooker
TTITLE12=Cry Before I Go - Jimmy Reed
TTITLE13=Don`t Know Where I`ve Been - Bo Diddley
EXTD=YEAR: 2006
EXTT0=
EXTT1=
EXTT2=
EXTT3=
EXTT4=
EXTT5=
EXTT6=
EXTT7=
EXTT8=
EXTT9=
EXTT10=
EXTT11=
EXTT12=
EXTT13=
PLAYORDER=
